<svg width="204" height="180" viewBox="0 0 204 180" fill="none" xmlns="http://www.w3.org/2000/svg">
<path d="M44.1516 32.8757C50.2039 26.8234 50.204 17.0106 44.1516 10.9582C38.0993 4.9059 28.2865 4.90591 22.2341 10.9583C16.1818 17.0106 16.1818 26.8234 22.2341 32.8757C28.2865 38.9281 38.0993 38.9281 44.1516 32.8757Z" fill="#CCD6EA"/>
<path d="M1.80474 138.493C-2.60185 130.426 62.6147 19.9774 112.079 19.4926C161.543 19.0078 208.065 144.887 203.717 155.173C199.368 165.46 22.1525 175.741 1.80474 138.493Z" fill="#CCD6EA"/>
<path d="M169.788 32.3811L159.324 21.917L147.257 33.9842V71.3693H135.899V50.9024H98.6322L85.5002 64.0344H73.6695V77.0482H65.8611V38.0069L38.8871 27.8323V89.3523H27.0564V101.42H18.0649V79.6508L6.4707 88.5123V146.062H169.788V32.3811Z" fill="#AEB8CE"/>
<path d="M158.791 161.014C158.791 161.014 123.245 166.854 79.3956 166.854C35.5465 166.854 0 161.014 0 161.014C0 161.014 35.5465 155.173 79.3956 155.173C123.245 155.173 158.791 161.014 158.791 161.014Z" fill="#AEB8CE"/>
<path d="M182.681 168.75C182.681 168.75 162.033 173.847 136.562 173.847C111.09 173.847 90.4424 168.75 90.4424 168.75C90.4424 168.75 111.091 163.652 136.562 163.652C162.033 163.652 182.681 168.75 182.681 168.75Z" fill="#AEB8CE"/>
<path d="M161.648 166.83H111.473C106.9 166.83 103.192 163.123 103.192 158.549V55.238C103.192 50.6644 106.9 46.957 111.473 46.957H161.648C166.222 46.957 169.929 50.6649 169.929 55.238V158.549C169.93 163.122 166.222 166.83 161.648 166.83Z" fill="#282844"/>
<path d="M111.473 162.835C109.11 162.835 107.187 160.912 107.187 158.549V55.2376C107.187 52.8738 109.11 50.9512 111.473 50.9512H161.648C164.012 50.9512 165.935 52.8743 165.935 55.2376V158.548C165.935 160.912 164.012 162.835 161.648 162.835H111.473V162.835Z" fill="#D5DBEA"/>
<mask id="mask0_10789_2104" style="mask-type:luminance" maskUnits="userSpaceOnUse" x="107" y="50" width="59" height="113">
<path d="M111.473 162.835C109.11 162.835 107.187 160.912 107.187 158.549V55.2376C107.187 52.8738 109.11 50.9512 111.473 50.9512H161.648C164.012 50.9512 165.935 52.8743 165.935 55.2376V158.548C165.935 160.912 164.012 162.835 161.648 162.835H111.473V162.835Z" fill="white"/>
</mask>
<g mask="url(#mask0_10789_2104)">
<path d="M180.591 153.236L146.514 150.81L141.777 134.41L175.295 128.848C176.255 128.689 176.904 127.782 176.745 126.821C176.586 125.861 175.678 125.211 174.718 125.371L122.952 133.961L124.161 129.131L177.006 119.205C177.516 119.109 177.852 118.618 177.757 118.108C177.661 117.598 177.168 117.262 176.659 117.357L155.95 121.247L143.369 105.514L149.93 101.739C150.407 101.465 150.729 100.982 150.799 100.436L152.627 86.2062L179.787 84.7557C180.305 84.728 180.703 84.2854 180.675 83.7669C180.647 83.2483 180.202 82.8513 179.686 82.8785L152.87 84.3108L157.866 45.4169C157.99 44.4516 157.308 43.5684 156.343 43.4445C155.378 43.3211 154.494 44.0025 154.37 44.9678L147.414 99.12L134.34 106.641L136.546 86.1522C136.631 85.9838 136.693 85.7993 136.721 85.6018C136.755 85.3615 136.739 85.1255 136.681 84.9044L141.287 42.115C141.391 41.1473 140.691 40.2787 139.723 40.1745C138.751 40.0694 137.887 40.7705 137.782 41.7382L133.304 83.3379L124.27 82.0573L102.929 41.489C102.687 41.0295 102.119 40.8536 101.66 41.0948C101.2 41.3364 101.024 41.9048 101.266 42.3642L115.758 69.9126L111.469 80.2425L99.5808 78.5573C98.6164 78.4212 97.7252 79.0914 97.5887 80.0548C97.4521 81.0187 98.1227 81.9104 99.0862 82.0469L110.858 83.7157L112.829 132.836L96.5877 141.946C96.1348 142.199 95.9739 142.772 96.2277 143.225C96.4 143.533 96.7191 143.705 97.0485 143.705C97.2043 143.705 97.362 143.667 97.5075 143.585L120.079 130.924L110.706 168.385C110.47 169.329 111.044 170.286 111.988 170.522C112.131 170.558 112.275 170.575 112.417 170.575C113.206 170.575 113.924 170.041 114.125 169.24L122.019 137.689L138.277 134.991L143.469 152.969C143.674 153.679 144.3 154.185 145.037 154.238L180.341 156.751C180.384 156.754 180.426 156.755 180.468 156.755C181.384 156.755 182.158 156.046 182.224 155.118C182.293 154.147 181.562 153.305 180.591 153.236ZM153.857 121.641L124.663 127.124L127.834 114.451L141.72 106.462L153.857 121.641ZM116.895 72.0751L121.974 81.7316L113.391 80.5147L116.895 72.0751ZM114.668 131.804L112.75 83.9837L132.927 86.844L130.615 108.321C130.598 108.477 130.604 108.63 130.627 108.778L125.428 111.769C125.013 112.008 124.713 112.405 124.597 112.869L120.707 128.417L114.668 131.804Z" fill="#EAEDF4"/>
</g>
<path d="M145.62 54.7477H127.503C125.608 54.7477 124.072 53.2117 124.072 51.3172V48.623H149.05V51.3172C149.05 53.2117 147.514 54.7477 145.62 54.7477Z" fill="#282844"/>
<path d="M141.231 52.146H128.72C128.29 52.146 127.941 51.7973 127.941 51.3674C127.941 50.9375 128.29 50.5889 128.72 50.5889H141.231C141.66 50.5889 142.009 50.9375 142.009 51.3674C142.009 51.7973 141.66 52.146 141.231 52.146Z" fill="#3B3B5B"/>
<path d="M145.94 51.3674C145.94 51.7973 145.591 52.146 145.161 52.146C144.731 52.146 144.383 51.7973 144.383 51.3674C144.383 50.9375 144.731 50.5889 145.161 50.5889C145.592 50.5884 145.94 50.9371 145.94 51.3674Z" fill="#3B3B5B"/>
<path d="M148.678 160.271H124.446C123.86 160.271 123.385 159.796 123.385 159.209C123.385 158.624 123.86 158.148 124.446 158.148H148.678C149.264 158.148 149.739 158.623 149.739 159.209C149.739 159.796 149.264 160.271 148.678 160.271Z" fill="#282844"/>
<path d="M120.173 136.623L126.176 112.976L149.04 99.6472L152.976 66.3604L153.404 66.411L149.443 99.9119L149.35 99.9663L126.55 113.258L120.755 136.085L134.066 133.801L134.139 134.227L120.173 136.623Z" fill="#07A899"/>
<path d="M156.906 66.9757C156.906 67.8467 155.242 68.553 153.19 68.553C151.138 68.553 149.475 67.8467 149.475 66.9757C149.475 66.1047 151.138 65.3984 153.19 65.3984C155.242 65.398 156.906 66.1042 156.906 66.9757Z" fill="#D5DBEA"/>
<path d="M153.189 57.6787C151.362 57.6787 149.881 59.1602 149.881 60.9872C149.881 62.8141 153.189 67.3178 153.189 67.3178C153.189 67.3178 156.498 62.8141 156.498 60.9872C156.498 59.1602 155.017 57.6787 153.189 57.6787ZM153.189 62.8573C152.198 62.8573 151.395 62.0539 151.395 61.0627C151.395 60.0716 152.199 59.2686 153.189 59.2686C154.18 59.2686 154.984 60.0721 154.984 61.0627C154.984 62.0539 154.18 62.8573 153.189 62.8573Z" fill="#F53B3B"/>
<path d="M137.772 134.084C137.772 134.955 136.108 135.661 134.056 135.661C132.004 135.661 130.341 134.955 130.341 134.084C130.341 133.213 132.004 132.507 134.056 132.507C136.108 132.507 137.772 133.213 137.772 134.084Z" fill="#D5DBEA"/>
<path d="M134.057 124.788C132.23 124.788 130.749 126.27 130.749 128.097C130.749 129.923 134.057 134.427 134.057 134.427C134.057 134.427 137.366 129.923 137.366 128.097C137.366 126.27 135.885 124.788 134.057 124.788ZM134.057 129.967C133.066 129.967 132.263 129.163 132.263 128.173C132.263 127.181 133.067 126.378 134.057 126.378C135.049 126.378 135.852 127.181 135.852 128.173C135.852 129.164 135.049 129.967 134.057 129.967Z" fill="#75BAE6"/>
<path d="M203.718 175.74C203.718 175.74 189.751 180.008 172.523 180.008C155.295 180.008 141.328 175.74 141.328 175.74C141.328 175.74 155.295 171.473 172.523 171.473C189.751 171.473 203.718 175.74 203.718 175.74Z" fill="#AEB8CE"/>
<path d="M169.529 73.6376L166.192 99.8645C166.192 99.8645 164.304 101.247 161.662 101.599C161.432 101.628 161.194 101.65 160.952 101.661C160.217 101.706 159.433 101.654 158.625 101.471C157.908 101.31 157.172 100.458 156.473 99.254C156.389 99.1183 156.309 98.9762 156.232 98.8297C154.095 94.8999 152.313 88.0249 152.313 88.0249L157.593 85.1745L160.583 89.9931L161.508 85.1745C161.508 85.1745 164.202 71.9646 164.844 71.0349C165.565 69.9922 168.359 69.1592 168.359 69.1592L169.529 73.6376Z" fill="#18C4B8"/>
<path d="M153.868 82.4649C153.868 82.4649 155.401 82.4522 155.76 82.815C156.118 83.1777 157.113 86.0066 157.113 86.0066C157.113 86.0066 155.615 88.5802 155.102 88.5985C154.589 88.6163 152.314 88.0273 152.314 88.0273L151.898 85.3261L153.868 82.4649Z" fill="#F3A080"/>
<path d="M158.656 86.9227L154.689 88.507C154.4 88.6206 154.075 88.4812 153.961 88.1921L151.63 82.3415L151.495 82.0013L151.07 80.9402C150.953 80.6549 151.096 80.3292 151.381 80.2119L155.352 78.6313C155.637 78.5178 155.963 78.6572 156.076 78.9425L156.493 79.989L156.629 80.3255L158.971 86.1981C159.084 86.4834 158.945 86.8091 158.656 86.9227Z" fill="#434356"/>
<path d="M156.496 79.9831L151.498 81.999L151.634 82.3372L156.632 80.3212L156.496 79.9831Z" fill="#343345"/>
<path d="M152.476 80.9755C152.476 81.2163 152.281 81.411 152.041 81.411C151.8 81.411 151.605 81.2158 151.605 80.9755C151.605 80.7348 151.801 80.54 152.041 80.54C152.281 80.54 152.476 80.7348 152.476 80.9755Z" fill="#343345"/>
<path d="M151.286 87.9479C152.705 88.2642 154.357 87.5904 154.357 87.5904C154.442 87.2853 154.474 86.9334 154.464 86.5575C154.463 86.3998 154.453 86.2379 154.436 86.0722C154.399 85.7057 154.335 85.3242 154.248 84.9422C154.212 84.7746 154.172 84.6066 154.129 84.44C154.012 83.9966 153.878 83.562 153.74 83.1603C153.683 82.9871 153.623 82.821 153.567 82.6624C153.408 82.2325 153.259 81.8623 153.143 81.5868C153.008 81.2677 152.92 81.0771 152.92 81.0771C151.591 81.179 149.851 82.37 149.851 82.37C149.762 82.8712 149.768 83.401 149.835 83.9224C150.096 85.9751 151.286 87.9479 151.286 87.9479Z" fill="#F3A080"/>
<path d="M151.604 83.4781C151.604 83.4781 151.791 83.4776 152.066 83.4579C152.343 83.4377 152.705 83.4063 153.092 83.3279C153.326 83.2805 153.545 83.2209 153.74 83.1613C153.683 82.9882 153.624 82.822 153.568 82.6634C153.382 82.6555 153.177 82.6677 152.967 82.7094C152.54 82.7967 152.187 82.9929 151.955 83.1642C151.723 83.3359 151.604 83.4781 151.604 83.4781Z" fill="#B54B57"/>
<path d="M152.215 85.1599C152.215 85.1599 152.394 85.1749 152.656 85.1735C152.92 85.1711 153.267 85.158 153.638 85.0923C153.858 85.0533 154.064 84.997 154.248 84.9421C154.213 84.7746 154.173 84.6066 154.129 84.44C153.945 84.4273 153.74 84.4315 153.526 84.4705C153.123 84.5437 152.785 84.7192 152.56 84.8731C152.335 85.0299 152.215 85.1599 152.215 85.1599Z" fill="#B54B57"/>
<path d="M152.289 86.8133C152.289 86.8133 152.475 86.8316 152.754 86.8307C153.034 86.8279 153.405 86.811 153.8 86.7349C154.041 86.6885 154.267 86.6247 154.465 86.5575C154.464 86.3999 154.453 86.238 154.437 86.0723C154.213 86.0559 153.953 86.0629 153.681 86.1155C153.259 86.1967 152.904 86.3727 152.664 86.5275C152.421 86.6833 152.289 86.8133 152.289 86.8133Z" fill="#B54B57"/>
<path d="M149.835 83.9229C150.036 83.5221 150.273 83.1448 150.603 82.8459C150.905 82.5714 151.268 82.3771 151.632 82.1969C152.048 81.9908 152.486 81.7529 152.933 81.6215C152.992 81.6032 153.064 81.5952 153.143 81.5868C153.008 81.2677 152.92 81.0771 152.92 81.0771C151.591 81.179 149.851 82.37 149.851 82.37C149.762 82.8717 149.768 83.4015 149.835 83.9229Z" fill="#F8BF92"/>
<path d="M155.681 173.599C155.732 173.289 155.882 172.928 156.284 172.753C157.459 172.24 161.769 170.653 162.938 169.746C163.846 169.041 164.647 167.506 164.96 166.854L172.969 167.266C173.427 169.308 173.72 173.241 173.777 174.065L155.681 173.599Z" fill="#BD4761"/>
<path d="M155.627 175.381L173.723 175.847L173.777 174.065L155.681 173.599L155.627 175.381Z" fill="white"/>
<path d="M164.447 170.285C164.46 170.306 164.471 170.327 164.482 170.348C164.566 170.506 164.616 170.748 164.403 170.837C164.294 170.882 164.17 170.864 164.055 170.839C163.659 170.753 163.298 170.576 162.953 170.372C162.582 170.152 162.187 169.915 161.952 169.546C161.709 169.165 162.068 168.823 162.496 168.921C163.236 169.091 164.064 169.623 164.447 170.285Z" fill="white"/>
<path d="M163.06 171.204C163.072 171.225 163.083 171.246 163.094 171.267C163.178 171.425 163.228 171.667 163.015 171.756C162.907 171.801 162.782 171.783 162.667 171.758C162.272 171.672 161.91 171.495 161.565 171.291C161.194 171.071 160.799 170.834 160.564 170.465C160.321 170.083 160.68 169.742 161.108 169.84C161.849 170.01 162.677 170.541 163.06 171.204Z" fill="white"/>
<path d="M161.364 171.791C161.377 171.812 161.388 171.833 161.399 171.854C161.483 172.012 161.533 172.254 161.32 172.342C161.211 172.388 161.087 172.37 160.972 172.345C160.576 172.259 160.215 172.082 159.87 171.878C159.499 171.658 159.104 171.421 158.869 171.052C158.626 170.67 158.985 170.329 159.413 170.427C160.154 170.597 160.981 171.128 161.364 171.791Z" fill="white"/>
<path d="M193.345 174.405C193.345 174.405 189.418 177.172 188.347 177.262C187.276 177.35 181.654 175.922 181.654 175.208C181.654 174.958 181.776 174.072 181.947 173.003C182.266 171.023 182.76 168.415 182.992 168.068C183.349 167.532 182.992 164.319 182.992 164.319C182.992 164.319 188.794 162.98 189.597 163.248C190.217 163.454 192.113 169.989 192.946 172.959C193.192 173.838 193.345 174.405 193.345 174.405Z" fill="#BD4761"/>
<path d="M193.345 174.406C193.345 174.406 189.418 177.173 188.347 177.262C187.276 177.351 181.654 175.923 181.654 175.208C181.654 174.958 181.776 174.072 181.947 173.004C183.776 173.722 187.694 175.141 188.987 174.677C189.864 174.362 191.532 173.612 192.946 172.96C193.192 173.838 193.345 174.406 193.345 174.406Z" fill="white"/>
<path d="M193.331 166.704C193.198 166.757 193.062 166.807 192.929 166.855C186.188 169.337 180.078 167.659 180.078 167.659L179.196 136.916L174.964 112.939L174.723 111.432L174.649 112.947L173.535 135.83L175.594 168.316C175.193 168.483 174.779 168.628 174.356 168.751C168.654 170.42 161.31 168.316 161.31 168.316C161.31 168.316 162.138 139.798 161.986 137.675C161.888 136.294 162.813 121.764 163.474 111.751C163.831 106.351 164.11 102.266 164.11 102.266H188.987L188.909 110.548L189.538 135.829C189.538 135.83 193.832 166.507 193.331 166.704Z" fill="#434356"/>
<path d="M188.986 102.266L188.909 110.548C183.598 112.15 178.913 112.805 174.964 112.939L174.723 111.432L174.649 112.947C169.634 113.085 165.833 112.385 163.474 111.751C163.83 106.351 164.109 102.266 164.109 102.266H188.986Z" fill="#343345"/>
<path d="M188.335 168.981C188.357 168.99 188.379 169 188.4 169.01C188.563 169.086 188.748 169.249 188.631 169.448C188.572 169.549 188.462 169.61 188.355 169.66C187.987 169.829 187.592 169.906 187.193 169.95C186.765 169.998 186.307 170.046 185.897 169.893C185.473 169.735 185.554 169.246 185.955 169.067C186.649 168.757 187.63 168.683 188.335 168.981Z" fill="white"/>
<path d="M188.335 170.527C188.357 170.536 188.379 170.546 188.4 170.556C188.563 170.632 188.748 170.795 188.631 170.994C188.572 171.095 188.462 171.156 188.355 171.206C187.987 171.375 187.592 171.451 187.193 171.496C186.765 171.544 186.307 171.592 185.897 171.439C185.473 171.281 185.554 170.792 185.955 170.613C186.649 170.303 187.63 170.228 188.335 170.527Z" fill="white"/>
<path d="M188.486 171.944C188.508 171.953 188.53 171.963 188.551 171.973C188.714 172.049 188.899 172.212 188.782 172.411C188.723 172.512 188.613 172.573 188.506 172.623C188.138 172.792 187.743 172.868 187.345 172.913C186.916 172.961 186.458 173.009 186.048 172.856C185.624 172.698 185.706 172.209 186.106 172.03C186.8 171.72 187.781 171.645 188.486 171.944Z" fill="white"/>
<path d="M175.593 168.315C175.192 168.482 174.778 168.628 174.355 168.751L171.961 135.83L174.277 108.234L174.722 111.432L174.648 112.947L173.534 135.83L175.593 168.315Z" fill="#343345"/>
<path d="M193.331 166.703C193.198 166.756 193.063 166.806 192.929 166.855L187.855 135.83L187.521 102.266H188.987L188.909 110.548L189.538 135.829C189.538 135.829 193.832 166.507 193.331 166.703Z" fill="#343345"/>
<path d="M173.944 67.4697C173.944 67.4697 168.086 68.8996 166.948 69.8941C165.81 70.8885 162.498 103.338 162.941 108.234C162.941 108.234 175.092 114.733 189.698 108.818C189.698 108.818 189.6 72.4244 188.986 71.0044C188.372 69.5843 183.929 67.6157 183.929 67.6157L176.233 70.193L173.944 67.4697Z" fill="#18C4B8"/>
<path d="M181.715 66.7521C181.589 66.8793 176.015 71.0038 176.015 71.0038C176.015 71.0038 176.143 68.4631 176.204 67.1393C176.221 66.7291 176.234 66.4363 176.234 66.3715C176.234 65.8422 175.782 63.5502 175.782 63.5502L181.407 60.9775C181.407 60.9775 181.496 62.1376 181.582 63.4183C181.686 64.9627 181.785 66.6826 181.715 66.7521Z" fill="#F3A080"/>
<path d="M181.583 63.4188C180.02 64.5535 176.578 67.036 176.234 67.1337C176.224 67.136 176.214 67.1388 176.204 67.1402C176.221 66.7301 176.234 66.4372 176.234 66.3725C176.234 65.8431 175.782 63.5511 175.782 63.5511L181.407 60.9785C181.407 60.9785 181.496 62.1381 181.583 63.4188Z" fill="#EA7C6F"/>
<path d="M182.176 61.1744C182.176 61.1744 182.035 61.5803 181.407 62.1364H181.405C181.277 62.2505 181.128 62.3711 180.955 62.4954C180.295 62.969 174.117 65.6162 173.165 65.4895C172.213 65.3623 171.316 62.0914 171.267 61.7479C170.961 59.6375 170.119 53.1154 170.119 53.1154C172.467 46.008 180.844 49.6887 181.795 50.3865C182.747 51.0843 182.176 61.1744 182.176 61.1744Z" fill="#F3A080"/>
<path d="M181.406 62.1366C181.278 62.2507 181.129 62.3713 180.956 62.4956C180.296 62.9691 174.118 65.6164 173.166 65.4897C172.214 65.3625 171.317 62.0916 171.268 61.748C171.86 63.1845 172.53 65.1715 173.204 65.1077C174.219 65.0124 180.656 62.5313 181.406 62.1366Z" fill="#F8BF92"/>
<path d="M171.274 55.6694C171.274 55.6694 171.645 53.8049 172.478 54.0757C173.31 54.3465 173.08 54.5267 173.08 54.5267L171.274 55.6694Z" fill="#4A0F2F"/>
<path d="M179.736 53.9072C179.736 53.9072 177.257 51.8799 176.555 52.872C176.146 53.4511 176.547 53.7284 176.547 53.7284L179.736 53.9072Z" fill="#4A0F2F"/>
<path d="M177.893 57.7934C178.302 57.7934 178.633 57.2612 178.633 56.6047C178.633 55.9482 178.302 55.416 177.893 55.416C177.484 55.416 177.152 55.9482 177.152 56.6047C177.152 57.2612 177.484 57.7934 177.893 57.7934Z" fill="#1D1E1E"/>
<path d="M179.34 55.9403C179.34 55.9403 179.079 56.3486 178.628 56.5312C178.177 56.7137 177.706 56.6016 177.706 56.6016C177.706 56.6016 177.967 56.1933 178.417 56.0107C178.868 55.8282 179.34 55.9403 179.34 55.9403Z" fill="white"/>
<path d="M172.191 57.946C172.499 57.946 172.749 57.5447 172.749 57.0496C172.749 56.5546 172.499 56.1533 172.191 56.1533C171.883 56.1533 171.633 56.5546 171.633 57.0496C171.633 57.5447 171.883 57.946 172.191 57.946Z" fill="#1D1E1E"/>
<path d="M171.154 56.6156C171.154 56.6156 171.35 56.8798 171.671 57.0098C171.992 57.1397 172.317 57.0863 172.317 57.0863C172.317 57.0863 172.121 56.822 171.8 56.692C171.479 56.5616 171.154 56.6156 171.154 56.6156Z" fill="white"/>
<path d="M177.199 62.1553C176.638 62.4373 175.952 62.4575 175.375 62.2088C175.575 62.5002 175.855 62.672 176.209 62.6588C176.562 62.6457 176.96 62.4162 177.199 62.1553Z" fill="#DD5B67"/>
<path d="M172.184 59.7943C172.086 60.0548 171.525 60.0848 170.929 59.8614C170.333 59.6385 169.929 59.2466 170.026 58.9862C170.123 58.7262 170.686 58.6957 171.282 58.9191C171.878 59.142 172.282 59.5338 172.184 59.7943Z" fill="#EA7C6F"/>
<path d="M179.681 58.58C179.783 58.9724 179.137 59.4792 178.238 59.7119C177.339 59.9447 176.528 59.8152 176.427 59.4229C176.325 59.0305 176.971 58.5237 177.87 58.2905C178.768 58.0577 179.579 58.1872 179.681 58.58Z" fill="#EA7C6F"/>
<path d="M178.516 60.3916C178.516 60.3916 178.477 60.4446 178.41 60.5371C178.342 60.6323 178.23 60.76 178.077 60.9041C177.773 61.1936 177.267 61.5263 176.632 61.6873C175.996 61.8459 175.392 61.7919 174.988 61.6803C174.785 61.6254 174.626 61.5662 174.521 61.5141C174.418 61.4649 174.358 61.4362 174.358 61.4362C174.358 61.4362 174.423 61.448 174.535 61.4686C174.647 61.4925 174.813 61.5137 175.014 61.5296C175.417 61.5629 175.971 61.5371 176.558 61.3912C177.144 61.2424 177.644 61.0031 177.984 60.783C178.154 60.6741 178.289 60.577 178.376 60.5028C178.465 60.4324 178.516 60.3916 178.516 60.3916Z" fill="#DD5B67"/>
<path d="M173.82 59.3237V60.0108C173.82 60.0108 174.882 60.3979 175.769 59.9141C175.769 59.9141 176.001 59.4458 176.001 59.0947C176.001 59.0947 174.445 59.6588 173.82 59.3237Z" fill="#EA7C6F"/>
<path d="M175.77 59.9141C175.149 60.322 174.271 60.3877 173.573 60.13C173.695 59.7011 173.626 59.2421 173.524 58.808C173.422 58.374 173.288 57.9413 173.283 57.4955C173.279 57.0496 173.427 56.5742 173.786 56.3096C173.521 56.8596 173.673 57.5025 173.838 58.09C174.004 58.6776 174.186 59.3078 173.986 59.8851C174.549 60.0038 175.214 60.061 175.77 59.9141Z" fill="#DD5B67"/>
<path d="M181.268 61.4258C182.54 61.3259 183.466 60.5708 183.962 59.9387C184.074 59.796 184.163 59.6599 184.231 59.5388C184.594 58.8799 184.699 56.5945 183.763 56.0628C183.107 55.6911 182.63 56.2304 182.403 56.5875V56.5889C182.307 56.7405 182.255 56.8592 182.255 56.8592L181.268 61.4258Z" fill="#F8BF92"/>
<path d="M181.268 61.4257C182.54 61.3257 183.466 60.5706 183.962 59.9385C184.005 59.8737 184.042 59.8127 184.074 59.7541C184.438 59.0952 184.542 56.8093 183.606 56.279C183.076 55.9772 182.661 56.2743 182.403 56.5873V56.5887C182.306 56.7403 182.254 56.859 182.254 56.859L181.268 61.4257Z" fill="#F3A080"/>
<path d="M184.058 57.8786C184.105 58.0616 184.075 58.2516 184.015 58.4323C183.759 59.1991 182.993 59.7848 182.26 60.3278C182.481 59.9556 182.562 59.5361 182.517 59.1269C182.501 58.9847 182.47 58.8429 182.469 58.7003C182.463 58.1254 183.78 56.7983 184.058 57.8786Z" fill="#EA7C6F"/>
<path d="M181.892 60.5463C181.892 60.5463 181.906 60.5383 181.933 60.5229C181.96 60.5069 182.003 60.4858 182.052 60.4525C182.15 60.3868 182.286 60.2816 182.413 60.1258C182.541 59.9705 182.656 59.7626 182.711 59.5167C182.761 59.2717 182.75 58.9859 182.619 58.7109C182.604 58.6762 182.585 58.6429 182.565 58.6101L182.55 58.5856C182.547 58.5795 182.549 58.5833 182.549 58.5828L182.549 58.5838L182.549 58.5833C182.549 58.5833 182.547 58.5847 182.55 58.5791L182.563 58.557L182.588 58.5134C182.604 58.4847 182.621 58.4561 182.639 58.428C182.708 58.3153 182.783 58.2102 182.86 58.1121C182.937 58.0141 183.016 57.924 183.095 57.8414C183.175 57.7592 183.251 57.6823 183.327 57.6255C183.403 57.5682 183.486 57.5307 183.565 57.5208C183.643 57.5119 183.717 57.5298 183.767 57.5542C183.818 57.5795 183.845 57.6119 183.857 57.6358C183.869 57.6597 183.868 57.6748 183.87 57.6743C183.87 57.6743 183.873 57.6602 183.867 57.6335C183.862 57.6067 183.842 57.5664 183.792 57.5293C183.742 57.4931 183.664 57.4589 183.56 57.4561C183.457 57.4551 183.345 57.4899 183.245 57.5462C183.145 57.6025 183.055 57.6734 182.96 57.7508C182.865 57.8292 182.77 57.9169 182.678 58.0155C182.587 58.1135 182.498 58.2215 182.418 58.3388C182.397 58.3679 182.378 58.3979 182.359 58.428L182.331 58.474L182.294 58.5387L182.268 58.5842C182.275 58.5993 182.285 58.6147 182.293 58.6298L182.33 58.695C182.347 58.7236 182.364 58.7518 182.376 58.7823C182.49 59.0207 182.516 59.2708 182.494 59.4947C182.467 59.719 182.392 59.9184 182.3 60.0766C182.208 60.2347 182.103 60.3525 182.023 60.4304C181.985 60.4694 181.949 60.4966 181.927 60.5168C181.903 60.5355 181.892 60.5463 181.892 60.5463Z" fill="#B54B57"/>
<path d="M176.234 66.3727C176.234 66.3727 174.88 66.7379 173.944 67.4704C173.008 68.2025 173.283 72.8541 173.283 72.8541L176.014 71.0051L178.517 73.8973C178.517 73.8973 183.852 68.4653 183.929 67.6164C184.006 66.7674 181.721 65.8105 181.721 65.8105L176.437 69.5498L176.234 66.3727Z" fill="white"/>
<path d="M184.339 53.1883C184.383 53.4699 184.393 53.8504 184.386 54.2601C184.375 55.3836 184.225 56.7079 184.225 56.7079C184.225 56.7079 182.743 55.9101 182.121 57.4691L181.17 52.6139C181.17 52.6139 176.944 52.6214 175.069 50.8048C175.069 50.8048 170.607 52.6139 170.541 56.4409C169.967 55.5849 169.527 54.6407 169.301 53.6712C168.295 53.3713 167.413 52.6467 166.948 51.6988C166.977 51.6913 167.007 51.6805 167.036 51.6697C168.006 51.3477 168.61 50.3857 169.173 49.5255C169.484 49.0534 169.996 48.4645 170.545 48.0914C170.351 46.8032 171.105 45.8046 171.105 45.8046C172.356 47.4109 178.067 46.569 179.736 46.8769C179.948 46.9135 180.15 46.9684 180.336 47.0341C180.143 46.5437 179.791 46.1087 179.378 45.7717C179.985 45.4423 180.779 45.5924 181.321 46.0204C181.866 46.4484 182.184 47.1106 182.338 47.784C182.66 47.5278 183.143 47.6559 183.498 47.868C184.094 48.2195 184.57 48.7718 184.829 49.4157C184.39 49.1266 183.805 49.2402 183.315 49.4232C183.26 49.4415 183.205 49.4706 183.15 49.4927C183.995 50.8395 184.229 52.5003 184.339 53.1883Z" fill="#38102B"/>
<path d="M184.339 53.1878C184.383 53.4694 184.394 53.8499 184.386 54.2596C184.218 53.9668 184.031 53.689 183.826 53.4182C183.885 53.8354 183.8 54.2671 183.588 54.6294C183.456 53.7439 183.274 52.8476 182.824 52.0718C182.374 51.2961 181.667 50.7071 180.775 50.6194C181.013 50.9521 181.251 51.2853 181.488 51.618C179.234 51.5997 176.889 50.7911 175.147 49.3603C172.959 49.671 170.962 51.0943 169.944 53.0554C169.812 52.7739 169.718 52.4116 169.721 52.1005C169.008 52.3018 168.228 52.2469 167.551 51.954C167.372 51.8733 167.196 51.7785 167.035 51.6687C167.112 51.6434 167.189 51.6138 167.262 51.5772C168.104 51.1933 168.653 50.3148 169.172 49.5245C169.483 49.0524 169.995 48.4635 170.544 48.0904C170.351 46.8022 171.104 45.8036 171.104 45.8036C172.356 47.4099 178.067 46.568 179.736 46.8759C179.948 46.9125 180.149 46.9674 180.336 47.0331C180.142 46.5427 179.791 46.1077 179.377 45.7707C179.985 45.4413 180.779 45.5915 181.32 46.0194C181.865 46.4474 182.184 47.1096 182.338 47.783C182.66 47.5268 183.142 47.6549 183.497 47.867C184.094 48.2185 184.57 48.7709 184.829 49.4147C184.39 49.1256 183.805 49.2392 183.314 49.4222C183.259 49.4405 183.204 49.4696 183.149 49.4917C183.581 50.1797 183.856 50.9516 184.031 51.6359C184.2 52.2839 184.284 52.8513 184.339 53.1878Z" fill="#4A0F2F"/>
<path d="M183.315 49.4232C183.26 49.4415 183.205 49.4706 183.15 49.4927C183.582 50.1806 183.856 50.9526 184.032 51.6368C183.914 51.9222 183.859 52.237 183.889 52.5482C183.549 51.6697 183.197 50.7771 182.594 50.06C182.553 50.2431 182.459 50.4148 182.323 50.5429C182.341 49.6391 181.979 48.7357 181.346 48.0951C181.569 48.6217 181.631 49.2181 181.521 49.7817C180.632 48.9037 179.418 48.3622 178.174 48.2814C178.389 48.8192 178.653 49.3387 178.957 49.8329C177.42 49.6208 175.935 49.0168 174.687 48.0914C173.648 48.4466 172.469 48.3659 171.489 47.8718C171.602 48.3584 171.77 48.8305 171.986 49.2768C171.024 49.189 170.321 50.1037 169.56 50.7001C168.909 51.2088 168.097 51.5162 167.263 51.5782C168.104 51.1943 168.653 50.3158 169.173 49.5255C169.484 49.0534 169.996 48.4645 170.545 48.0914C170.351 46.8032 171.105 45.8046 171.105 45.8046C172.356 47.4109 178.068 46.569 179.736 46.8769C179.948 46.9135 180.15 46.9684 180.337 47.0341C180.143 46.5437 179.791 46.1087 179.378 45.7717C179.985 45.4423 180.779 45.5924 181.321 46.0204C181.866 46.4484 182.184 47.1106 182.338 47.784C182.66 47.5278 183.143 47.6559 183.498 47.868C184.094 48.2195 184.57 48.7718 184.829 49.4157C184.39 49.1271 183.805 49.2402 183.315 49.4232Z" fill="#5F1234"/>
<path d="M166.853 72.6709C166.853 72.6709 164.941 87.1906 164.593 90.1466C164.245 93.1026 163.474 100.493 163.474 100.493C163.474 100.493 163.636 91.4301 163.984 87.2234C164.332 83.0172 166.853 72.6709 166.853 72.6709Z" fill="#18C4B8"/>
<path d="M177.653 113.182C177.872 113.773 181.733 111.815 181.733 111.815L182.617 112.62L181.084 113.593L179.789 115.899C179.789 115.899 180.094 116.313 180.49 116.801C180.49 116.801 180.493 116.802 180.493 116.805C180.495 116.81 180.498 116.811 180.5 116.816C180.532 116.849 180.562 116.886 180.595 116.924C180.601 116.93 180.606 116.939 180.611 116.945C180.623 116.957 180.637 116.973 180.648 116.985C180.691 117.041 180.741 117.1 180.789 117.151C180.988 117.388 181.206 117.622 181.409 117.814C181.432 117.837 181.458 117.861 181.481 117.885C181.612 118.001 181.733 118.1 181.848 118.173C181.97 118.257 182.08 118.309 182.176 118.31L183.547 116.774C183.547 116.774 186.389 116.914 186.775 116.719C186.929 116.639 187.321 115.999 187.741 115.259C187.887 114.996 188.028 114.723 188.173 114.463C188.173 114.463 188.176 114.456 188.185 114.44C188.232 114.347 188.653 112.633 188.703 112.542L185.015 110.149L184.496 110.853C184.296 110.817 184.085 110.777 183.87 110.74C183.09 110.606 182.242 110.523 181.577 110.606C181.295 110.643 181.04 110.7 180.852 110.803C179.499 111.504 177.441 112.594 177.653 113.182Z" fill="#F3A080"/>
<path d="M180.493 116.804C180.542 116.865 180.595 116.926 180.647 116.988C180.658 116.975 180.668 116.959 180.678 116.944C180.851 116.69 181.091 116.351 181.358 115.99C181.626 115.629 181.891 115.321 182.116 115.112C182.173 115.06 182.224 115.013 182.27 114.972C182.32 114.933 182.363 114.901 182.398 114.873C182.469 114.817 182.509 114.786 182.509 114.786C182.509 114.786 182.459 114.796 182.367 114.819C182.321 114.831 182.264 114.845 182.199 114.865C182.138 114.888 182.066 114.918 181.989 114.952C181.68 115.093 181.291 115.374 180.997 115.769C180.725 116.136 180.573 116.514 180.493 116.804Z" fill="#B54B57"/>
<path d="M181.41 117.814C181.433 117.838 181.459 117.861 181.482 117.884C181.531 117.813 181.593 117.719 181.669 117.607C181.842 117.353 182.082 117.014 182.348 116.652C182.618 116.292 182.882 115.984 183.107 115.775C183.164 115.723 183.216 115.676 183.261 115.634C183.311 115.596 183.353 115.562 183.389 115.536C183.46 115.48 183.5 115.447 183.5 115.447C183.5 115.447 183.45 115.458 183.357 115.481C183.312 115.492 183.254 115.507 183.19 115.527C183.128 115.551 183.058 115.58 182.979 115.615C182.672 115.755 182.283 116.036 181.987 116.431C181.696 116.827 181.542 117.235 181.467 117.533C181.439 117.643 181.422 117.737 181.41 117.814Z" fill="#B54B57"/>
<path d="M187.499 69.5605C187.499 69.5605 191.459 71.0632 192.415 72.0839C193.371 73.1046 200.246 96.2985 200.334 97.429C200.421 98.5595 189.669 113.713 189.669 113.713L183.501 108.988L191.66 96.4999L187.528 84.0751L187.499 69.5605Z" fill="#18C4B8"/>
<path d="M187.499 74.7861L189.569 90.2143L191.66 96.4995L182.26 108.233L189.668 113.712L191.011 111.808L184.493 107.467L193.371 96.8411L190.446 89.3861L187.499 74.7861Z" fill="#18C4B8"/>
<path d="M186.78 43.3663L193.341 36.0234L196.164 40.7224L186.78 43.3663Z" fill="white"/>
<path d="M183.611 42.9331L182.283 36.8906L185.689 36.9925L183.611 42.9331Z" fill="white"/>
<path d="M187.518 47.6198L194.054 46.9854L194.068 50.1117L187.518 47.6198Z" fill="white"/>
<path d="M6.91602 149.185C6.91602 149.185 16.3299 151.044 25.2834 151.044C34.2369 151.044 43.5325 149.185 43.5325 149.185V134.312H6.91602V149.185Z" fill="#282844"/>
<path d="M25.2251 162.665C33.1057 162.665 39.4942 156.277 39.4942 148.396C39.4942 140.515 33.1057 134.127 25.2251 134.127C17.3445 134.127 10.9561 140.515 10.9561 148.396C10.9561 156.277 17.3445 162.665 25.2251 162.665Z" fill="#4F4F7F"/>
<path d="M32.9754 150.217C33.9792 145.932 31.3196 141.645 27.0349 140.641C22.7502 139.637 18.463 142.297 17.4592 146.582C16.4554 150.866 19.115 155.154 23.3997 156.157C27.6844 157.161 31.9716 154.502 32.9754 150.217Z" fill="#D5DBEA"/>
<path d="M25.2243 151.467C26.9204 151.467 28.2953 150.092 28.2953 148.396C28.2953 146.7 26.9204 145.325 25.2243 145.325C23.5283 145.325 22.1533 146.7 22.1533 148.396C22.1533 150.092 23.5283 151.467 25.2243 151.467Z" fill="#EAEDF4"/>
<path d="M84.4326 94.9483V88.8964C84.4326 88.0428 85.1248 87.3506 85.9784 87.3506H103.185V94.9488H84.4326V94.9483Z" fill="white"/>
<path d="M80.2295 96.8882C80.2295 96.8882 81.6036 94.3827 82.4117 94.1401C83.2198 93.8974 103.185 94.1401 103.185 94.1401V96.8882H80.2295Z" fill="#282844"/>
<path d="M103.184 96.0098V152.034H42.7719C42.5406 151.398 42.214 150.517 41.8127 149.497C41.6766 149.146 41.5307 148.779 41.3772 148.398C40.8329 147.061 40.1937 145.568 39.4926 144.091C37.5436 139.989 35.1385 136.033 33.0976 136.033H17.1372C15.0963 136.033 12.6879 139.989 10.7423 144.091C10.6367 144.312 10.5311 144.537 10.4293 144.761C9.85111 146.017 9.32034 147.265 8.86138 148.398C8.71168 148.765 8.56855 149.123 8.43621 149.463C8.03122 150.497 7.69803 151.392 7.46338 152.034C5.48018 152.034 3.68751 151.231 2.38806 149.932C1.93239 149.476 1.53772 148.963 1.22142 148.398C0.626365 147.354 0.286133 146.143 0.286133 144.857V129.485C0.286133 129.485 0.286133 129.485 0.289418 129.482C0.384683 129.274 3.55142 122.695 8.41932 119.43C8.4226 119.43 8.4226 119.427 8.42636 119.427H8.42964C8.75626 119.202 9.09274 118.998 9.43626 118.814C10.3514 118.314 11.3172 117.947 12.3308 117.763C19.4438 116.471 46.2789 117.763 46.2789 117.763C46.2789 117.763 53.6026 105.487 59.2833 100.01C60.5621 98.7753 61.7597 97.8841 62.7701 97.5575C66.8993 96.221 91.3195 96.0234 103.184 96.0098Z" fill="#FFC359"/>
<path d="M65.3561 121.662H64.3457V150.518H65.3561V121.662Z" fill="#FF9D46"/>
<path d="M94.7994 122.188H93.7891V151.045H94.7994V122.188Z" fill="#FF9D46"/>
<path d="M1.90482 129.3C1.90482 129.3 7.07775 121.541 9.42183 120.975C11.7659 120.409 17.6667 120.328 17.4241 121.783C17.1815 123.238 0.368853 132.533 1.90482 129.3Z" fill="white"/>
<path d="M103.185 98.1079V120.157H49.0283C49.0283 120.157 56.1342 105.632 61.8797 101.537C66.6007 98.1726 93.9225 98.0534 103.185 98.1079Z" fill="#282844"/>
<path d="M103.185 148.398H47.5718C47.5718 148.398 41.3908 132.938 39.3297 131.968C37.2682 130.999 17.141 131.485 15.2019 131.968C13.2595 132.455 8.42964 140.693 8.42964 140.693H0.286133V144.857C0.286133 148.821 3.49933 152.034 7.46338 152.034C8.01104 150.524 9.09603 147.66 10.4297 144.762C12.4265 140.431 14.9846 136.033 17.1377 136.033H33.0981C36.69 136.033 41.4049 148.265 42.7724 152.034H103.185V148.398Z" fill="#FF9D46"/>
<path d="M0.286133 144.092H10.7427C10.6372 144.313 10.5316 144.538 10.4297 144.762C9.85157 146.017 9.32081 147.266 8.86185 148.398H1.22189C0.626834 147.354 0.286602 146.143 0.286602 144.857L0.286133 144.092Z" fill="#282844"/>
<path d="M103.185 144.092V148.398H41.3778C40.8334 147.061 40.1943 145.568 39.4932 144.092H103.185Z" fill="#282844"/>
<path d="M46.1194 118.814L45.6327 119.427H8.42969C8.75631 119.203 9.09279 118.998 9.4363 118.814H46.1194Z" fill="#FF9D46"/>
<path d="M92.3541 118.146V99.8907C92.3541 99.8907 67.6617 99.833 63.0932 102.708C59.972 104.672 53.5029 114.892 51.6445 118.146H92.3541Z" fill="#4F4F7F"/>
<path d="M103.186 118.147V99.7412C99.9923 99.7755 97.6074 99.8909 97.6074 99.8909V118.147H103.186Z" fill="#4F4F7F"/>
<path d="M60.2467 110.546C57.8872 110.608 55.9922 112.536 55.9922 114.91C55.9922 117.285 57.8872 119.213 60.2467 119.275V110.546Z" fill="#FF9D46"/>
<path d="M57.9505 114.113C57.2363 114.181 56.5933 114.262 56.0255 114.354C55.1001 114.504 54.3652 114.684 53.8283 114.892C53.3046 115.099 52.9709 115.331 52.8245 115.589C52.4571 116.253 50.8141 119.436 50.4434 120.158H51.9709C52.5664 119.005 53.665 116.892 53.9879 116.3C54.2225 116.126 55.0358 115.916 56.0696 115.736C56.6886 115.63 57.3827 115.535 58.0833 115.467C58.4541 115.429 58.7295 115.099 58.6925 114.725C58.6582 114.351 58.325 114.076 57.9505 114.113Z" fill="#FF9D46"/>
<path d="M72.2136 125.825H68.5762V129.463H72.2136V125.825Z" fill="#282844"/>
<path d="M75.8503 122.203H72.2129V125.841H75.8503V122.203Z" fill="#282844"/>
<path d="M79.488 125.818H75.8506V129.456H79.488V125.818Z" fill="#282844"/>
<path d="M83.1257 122.194H79.4883V125.832H83.1257V122.194Z" fill="#282844"/>
<path d="M86.7634 125.811H83.126V129.448H86.7634V125.811Z" fill="#282844"/>
<path d="M90.4001 122.188H86.7627V125.826H90.4001V122.188Z" fill="#282844"/>
<path d="M91.707 57.1904C87.017 57.1904 83.2148 60.9926 83.2148 65.6826C83.2148 70.3726 91.707 81.9321 91.707 81.9321C91.707 81.9321 100.199 70.3726 100.199 65.6826C100.199 60.993 96.3971 57.1904 91.707 57.1904ZM91.707 70.4829C89.1635 70.4829 87.1015 68.4209 87.1015 65.8774C87.1015 63.3338 89.1635 61.2718 91.707 61.2718C94.2506 61.2718 96.3126 63.3338 96.3126 65.8774C96.3126 68.4214 94.2506 70.4829 91.707 70.4829Z" fill="#F53B3B"/>
</svg>
