<svg width="10" height="13" viewBox="0 0 10 13" fill="none" xmlns="http://www.w3.org/2000/svg">
<path d="M5.00011 5.5C4.45621 5.5 3.92453 5.33872 3.47229 5.03654C3.02006 4.73437 2.66759 4.30488 2.45944 3.80238C2.2513 3.29988 2.19684 2.74695 2.30295 2.2135C2.40906 1.68006 2.67097 1.19005 3.05557 0.805458C3.44016 0.420863 3.93017 0.158951 4.46361 0.0528417C4.99706 -0.0532676 5.55 0.00119154 6.05249 0.209333C6.55499 0.417473 6.98448 0.769948 7.28665 1.22218C7.58883 1.67442 7.75011 2.2061 7.75011 2.75C7.74929 3.47909 7.45929 4.17809 6.94374 4.69363C6.4282 5.20918 5.7292 5.49917 5.00011 5.5ZM9.50011 12H1.82261L9.33074 5.375C9.35611 5.3526 9.37915 5.32768 9.39949 5.30063C9.46801 5.20924 9.50349 5.0973 9.50011 4.98313C9.49694 4.88836 9.46689 4.79644 9.41346 4.7181C9.36003 4.63977 9.28543 4.57824 9.19835 4.5407C9.11128 4.50315 9.01532 4.49114 8.92168 4.50607C8.82804 4.521 8.74057 4.56225 8.66949 4.625L7.13574 5.97813C6.43472 5.64676 5.66625 5.48297 4.89104 5.4997C4.11583 5.51643 3.35514 5.71323 2.66908 6.07454C1.98302 6.43585 1.39039 6.95177 0.938025 7.58152C0.485662 8.21128 0.185963 8.93761 0.0626129 9.70313C0.0589482 9.72587 0.0568599 9.74884 0.056363 9.77188L0.000112912 12.4894C-0.00130159 12.5559 0.0105863 12.6221 0.0350796 12.684C0.0595729 12.7459 0.0961786 12.8023 0.142749 12.8498C0.18932 12.8974 0.244919 12.9352 0.306285 12.961C0.367651 12.9867 0.433548 13 0.500113 13H9.50011C9.63272 13 9.7599 12.9473 9.85367 12.8536C9.94743 12.7598 10.0001 12.6326 10.0001 12.5C10.0001 12.3674 9.94743 12.2402 9.85367 12.1464C9.7599 12.0527 9.63272 12 9.50011 12ZM8.75761 7.4375C8.68763 7.42904 8.61666 7.43546 8.54933 7.45636C8.48201 7.47725 8.41987 7.51215 8.36699 7.55875L4.46699 11H9.50011C9.63272 11 9.7599 10.9473 9.85367 10.8536C9.94743 10.7598 10.0001 10.6326 10.0001 10.5C10.0019 9.48066 9.69061 8.48536 9.10824 7.64875C9.06801 7.5908 9.01596 7.54201 8.95553 7.5056C8.8951 7.46919 8.82765 7.44598 8.75761 7.4375Z" fill="#777777"/>
</svg>
